<?xml version="1.0" encoding="utf-8"?>
<!-- Generator: Adobe Illustrator 17.0.0, SVG Export Plug-In . SVG Version: 6.00 Build 0)  -->
<!DOCTYPE svg PUBLIC "-//W3C//DTD SVG 1.1//EN" "http://www.w3.org/Graphics/SVG/1.1/DTD/svg11.dtd">
<svg version="1.1" id="Layer_1" xmlns="http://www.w3.org/2000/svg" xmlns:xlink="http://www.w3.org/1999/xlink" x="0px" y="0px"
	 width="100px" height="100px" viewBox="0 0 100 100" enable-background="new 0 0 100 100" xml:space="preserve">
<g>
	<g>
		<path fill="#DF5426" d="M43.457,43.412l3.72,1.772l0.148,0.07c0.817-0.491,1.77-0.779,2.793-0.779
			c2.742,0,5.003,2.032,5.376,4.671l3.698,1.762l6.011-36.384L43.457,43.412z"/>
		<path fill="#DF5426" d="M52.911,54.57c-0.817,0.491-1.77,0.779-2.793,0.779c-2.742,0-5.003-2.032-5.376-4.671l-3.698-1.762
			L35.033,85.3l21.746-28.887L52.911,54.57z"/>
		<circle fill="#CCCCCC" cx="50.118" cy="49.912" r="2.835"/>
	</g>
</g>
<path fill="#666766" d="M14.818,47.791c4.646-4.582,8.996-9.3,13.734-13.784C28.764,33.805,29,33.604,29,33.403V21.461
	c0,0.125-0.651,0.414-1.02,0.782c-8.28,8.292-16.489,16.575-24.766,24.869c-1.184,1.19-1.151,2.022,0.012,3.188
	c8.311,8.331,16.491,16.644,24.806,24.964C28.376,75.607,29,75.891,29,76.016V64.06c-5-4.816-9.503-9.674-14.374-14.473
	C13.866,48.839,14.111,48.488,14.818,47.791z"/>
<path fill="#666766" d="M96.625,46.891c-6.4-6.404-12.806-12.803-19.207-19.205c-1.755-1.754-3.518-3.509-5.275-5.262
	C71.795,22.075,72,21.791,71,21.659v11.939c5,4.755,9.553,9.548,14.359,14.288c0.789,0.776,0.894,1.173,0.045,2.004
	c-4.627,4.535-9.104,9.237-13.812,13.686C71.389,63.77,71,63.963,71,64.155v12.039c1-0.182,0.93-0.624,1.352-1.045
	c8.088-8.097,16.186-16.186,24.277-24.275C98.287,49.216,98.295,48.561,96.625,46.891z"/>
</svg>
